<svg width="831" height="849" viewBox="0 0 831 849" fill="none" xmlns="http://www.w3.org/2000/svg">
<path d="M427.05 756.8C349.696 756.71 274.765 729.803 215.023 680.664C155.281 631.526 114.423 563.194 99.4096 487.31C84.3962 411.427 96.1561 332.685 132.686 264.499C169.216 196.313 228.256 142.901 299.748 113.362C371.24 83.8223 450.763 79.983 524.768 102.498C598.774 125.013 662.685 172.489 705.613 236.838C748.542 301.188 767.832 378.431 760.199 455.408C752.566 532.385 718.481 604.335 663.75 659C632.704 690.117 595.804 714.78 555.178 731.566C514.553 748.351 471.006 756.928 427.05 756.8ZM427.05 94.8001C351.088 94.8927 277.508 121.318 218.843 169.573C160.178 217.829 120.057 284.931 105.314 359.449C90.5717 433.966 102.12 511.29 137.991 578.249C173.862 645.208 231.837 697.66 302.042 726.67C372.246 755.68 450.336 759.453 523.011 737.348C595.685 715.243 658.448 668.626 700.609 605.438C742.769 542.25 761.719 466.4 754.231 390.808C746.742 315.216 713.279 244.558 659.54 190.87C629.051 160.298 592.809 136.066 552.905 119.573C513.002 103.081 470.227 94.6545 427.05 94.7801V94.8001Z" fill="white"/>
<path d="M429.58 52.1899H424.45V91.7899H429.58V52.1899Z" fill="white"/>
<path d="M429.58 753.8H424.45V793.4H429.58V753.8Z" fill="white"/>
<path d="M367.178 72.8463L363.239 73.5422L367.42 97.2057L371.359 96.5097L367.178 72.8463Z" fill="white"/>
<path d="M480.017 746.784L476.097 747.464L480.182 771.014L484.102 770.334L480.017 746.784Z" fill="white"/>
<path d="M311.66 112.43L303.42 89.86L307.18 88.49L315.42 111.07L311.66 112.43Z" fill="white"/>
<path d="M546.85 757.1L538.61 734.53L542.37 733.16L550.61 755.74L546.85 757.1Z" fill="white"/>
<path d="M259.39 137.13L247.35 116.33L250.81 114.33L262.85 135.14L259.39 137.13Z" fill="white"/>
<path d="M603.22 731.26L591.18 710.46L594.64 708.46L606.68 729.27L603.22 731.26Z" fill="white"/>
<path d="M212.22 170.51L196.74 152.11L199.8 149.54L215.28 167.95L212.22 170.51Z" fill="white"/>
<path d="M654.23 696.05L638.75 677.65L641.82 675.08L657.29 693.49L654.23 696.05Z" fill="white"/>
<path d="M171.57 211.56L153.12 196.12L155.69 193.06L174.14 208.5L171.57 211.56Z" fill="white"/>
<path d="M698.34 652.54L679.89 637.09L682.46 634.04L700.91 649.48L698.34 652.54Z" fill="white"/>
<path d="M138.68 259.02L117.82 247.01L119.82 243.55L140.68 255.56L138.68 259.02Z" fill="white"/>
<path d="M734.21 602.04L713.35 590.03L715.35 586.57L736.21 598.59L734.21 602.04Z" fill="white"/>
<path d="M114.56 311.46L91.9199 303.24L93.2899 299.49L115.92 307.71L114.56 311.46Z" fill="white"/>
<path d="M760.74 546.1L738.11 537.88L739.48 534.13L762.11 542.35L760.74 546.1Z" fill="white"/>
<path d="M76.9049 359.206L76.2141 363.136L99.9305 367.305L100.621 363.376L76.9049 359.206Z" fill="white"/>
<path d="M754.043 478.248L753.352 482.178L777.068 486.347L777.759 482.418L754.043 478.248Z" fill="white"/>
<path d="M95.23 420.23H55.54V425.35H95.23V420.23Z" fill="white"/>
<path d="M798.5 420.23H758.81V425.35H798.5V420.23Z" fill="white"/>
<path d="M99.941 478.29L76.2283 482.48L76.9225 486.409L100.635 482.219L99.941 478.29Z" fill="white"/>
<path d="M777.144 359.138L753.431 363.328L754.125 367.257L777.838 363.067L777.144 359.138Z" fill="white"/>
<path d="M93.2999 546.1L91.9299 542.35L114.56 534.13L115.92 537.88L93.2999 546.1Z" fill="white"/>
<path d="M739.48 311.46L738.11 307.71L760.74 299.49L762.11 303.24L739.48 311.46Z" fill="white"/>
<path d="M119.83 602.04L117.83 598.58L138.68 586.57L140.68 590.03L119.83 602.04Z" fill="white"/>
<path d="M715.35 259.02L713.35 255.56L734.21 243.55L736.21 247L715.35 259.02Z" fill="white"/>
<path d="M155.69 652.53L153.12 649.48L171.57 634.03L174.14 637.09L155.69 652.53Z" fill="white"/>
<path d="M682.47 211.55L679.89 208.5L698.34 193.05L700.91 196.11L682.47 211.55Z" fill="white"/>
<path d="M199.8 696.05L196.74 693.48L212.22 675.08L215.28 677.64L199.8 696.05Z" fill="white"/>
<path d="M641.82 170.51L638.75 167.94L654.23 149.54L657.3 152.1L641.82 170.51Z" fill="white"/>
<path d="M250.82 731.26L247.35 729.26L259.39 708.45L262.86 710.45L250.82 731.26Z" fill="white"/>
<path d="M594.64 137.13L591.18 135.13L603.22 114.33L606.68 116.32L594.64 137.13Z" fill="white"/>
<path d="M307.18 757.1L303.42 755.73L311.66 733.15L315.42 734.52L307.18 757.1Z" fill="white"/>
<path d="M542.37 112.43L538.62 111.06L546.85 88.49L550.61 89.85L542.37 112.43Z" fill="white"/>
<path d="M367.404 748.375L363.243 772.042L367.183 772.735L371.343 749.068L367.404 748.375Z" fill="white"/>
<path d="M486.801 72.787L482.64 96.4541L486.58 97.1466L490.74 73.4795L486.801 72.787Z" fill="white"/>
<path d="M415.799 78.0023L414.09 78.062L414.505 89.9248L416.214 89.8651L415.799 78.0023Z" fill="white"/>
<path d="M444.337 753.253L442.627 753.321L443.102 765.191L444.812 765.123L444.337 753.253Z" fill="white"/>
<path d="M403.731 78.6615L402.026 78.7808L402.854 90.6218L404.56 90.5026L403.731 78.6615Z" fill="white"/>
<path d="M451.207 754.981L449.501 755.1L450.332 766.941L452.037 766.822L451.207 754.981Z" fill="white"/>
<path d="M391.732 79.5944L390.031 79.7734L391.274 91.5782L392.975 91.3992L391.732 79.5944Z" fill="white"/>
<path d="M462.726 754L461.025 754.179L462.268 765.984L463.969 765.805L462.726 754Z" fill="white"/>
<path d="M379.74 81.0754L378.046 81.3137L379.7 93.0679L381.394 92.8296L379.74 81.0754Z" fill="white"/>
<path d="M474.341 752.524L472.647 752.762L474.305 764.526L475.998 764.288L474.341 752.524Z" fill="white"/>
<path d="M356.76 97.1599L354.29 85.5399L355.96 85.1899L358.43 96.7999L356.76 97.1599Z" fill="white"/>
<path d="M497.282 748.417L495.609 748.773L498.083 760.382L499.756 760.026L497.282 748.417Z" fill="white"/>
<path d="M345.41 99.8001L342.53 88.2801L344.19 87.8701L347.07 99.3901L345.41 99.8001Z" fill="white"/>
<path d="M509.83 757.72L506.95 746.2L508.62 745.79L511.5 757.31L509.83 757.72Z" fill="white"/>
<path d="M334.16 102.84L330.88 91.43L332.53 90.96L335.81 102.37L334.16 102.84Z" fill="white"/>
<path d="M521.5 754.64L518.22 743.22L519.86 742.75L523.15 754.17L521.5 754.64Z" fill="white"/>
<path d="M323.02 106.27L319.35 94.98L320.98 94.45L324.65 105.74L323.02 106.27Z" fill="white"/>
<path d="M533.05 751.14L529.37 739.85L531 739.32L534.68 750.62L533.05 751.14Z" fill="white"/>
<path d="M301.15 114.28L296.69 103.27L298.28 102.63L302.73 113.64L301.15 114.28Z" fill="white"/>
<path d="M555.75 742.97L551.29 731.96L552.88 731.32L557.34 742.33L555.75 742.97Z" fill="white"/>
<path d="M290.43 118.85L285.59 108L287.16 107.31L292 118.15L290.43 118.85Z" fill="white"/>
<path d="M566.87 738.29L562.03 727.44L563.6 726.75L568.44 737.59L566.87 738.29Z" fill="white"/>
<path d="M279.88 123.79L274.67 113.12L276.2 112.37L281.42 123.04L279.88 123.79Z" fill="white"/>
<path d="M577.83 733.23L572.61 722.55L574.14 721.8L579.36 732.48L577.83 733.23Z" fill="white"/>
<path d="M269.51 129.09L263.93 118.61L265.44 117.81L271.02 128.29L269.51 129.09Z" fill="white"/>
<path d="M588.59 727.78L583 717.3L584.52 716.5L590.1 726.98L588.59 727.78Z" fill="white"/>
<path d="M249.36 140.77L243.05 130.7L244.5 129.79L250.81 139.86L249.36 140.77Z" fill="white"/>
<path d="M609.52 715.8L603.22 705.73L604.67 704.82L610.98 714.89L609.52 715.8Z" fill="white"/>
<path d="M239.6 147.13L232.95 137.28L234.37 136.33L241.02 146.17L239.6 147.13Z" fill="white"/>
<path d="M619.66 709.26L613.01 699.42L614.43 698.47L621.08 708.31L619.66 709.26Z" fill="white"/>
<path d="M230.07 153.82L223.08 144.22L224.46 143.21L231.46 152.82L230.07 153.82Z" fill="white"/>
<path d="M629.57 702.38L622.57 692.78L623.95 691.77L630.95 701.38L629.57 702.38Z" fill="white"/>
<path d="M220.78 160.84L213.46 151.49L214.81 150.44L222.13 159.79L220.78 160.84Z" fill="white"/>
<path d="M639.22 695.16L631.9 685.8L633.25 684.75L640.57 694.11L639.22 695.16Z" fill="white"/>
<path d="M202.97 175.83L195.01 167.01L196.28 165.86L204.24 174.69L202.97 175.83Z" fill="white"/>
<path d="M657.75 679.73L649.79 670.9L651.06 669.76L659.02 678.59L657.75 679.73Z" fill="white"/>
<path d="M194.47 183.78L186.2 175.24L187.43 174.06L195.7 182.6L194.47 183.78Z" fill="white"/>
<path d="M666.6 671.54L658.33 663L659.56 661.81L667.83 670.35L666.6 671.54Z" fill="white"/>
<path d="M186.25 192.03L177.69 183.78L178.88 182.55L187.44 190.8L186.25 192.03Z" fill="white"/>
<path d="M675.15 663.05L666.59 654.8L667.78 653.57L676.34 661.82L675.15 663.05Z" fill="white"/>
<path d="M178.32 200.55L169.48 192.6L170.63 191.34L179.47 199.28L178.32 200.55Z" fill="white"/>
<path d="M683.4 654.26L674.56 646.32L675.71 645.04L684.55 652.99L683.4 654.26Z" fill="white"/>
<path d="M163.39 218.4L154.01 211.09L155.06 209.74L164.44 217.05L163.39 218.4Z" fill="white"/>
<path d="M698.97 635.85L689.59 628.54L690.64 627.2L700.02 634.51L698.97 635.85Z" fill="white"/>
<path d="M156.4 227.7L146.77 220.72L147.78 219.34L157.4 226.32L156.4 227.7Z" fill="white"/>
<path d="M706.25 626.25L696.63 619.27L697.63 617.89L707.26 624.87L706.25 626.25Z" fill="white"/>
<path d="M149.74 237.24L139.87 230.6L140.83 229.19L150.69 235.83L149.74 237.24Z" fill="white"/>
<path d="M713.2 616.41L703.33 609.77L704.29 608.35L714.16 614.99L713.2 616.41Z" fill="white"/>
<path d="M143.41 247.01L133.33 240.72L134.23 239.27L144.32 245.56L143.41 247.01Z" fill="white"/>
<path d="M719.8 606.33L709.71 600.03L710.62 598.59L720.71 604.88L719.8 606.33Z" fill="white"/>
<path d="M131.82 267.17L121.31 261.6L122.11 260.09L132.62 265.66L131.82 267.17Z" fill="white"/>
<path d="M731.92 585.5L721.41 579.93L722.22 578.42L732.72 583.99L731.92 585.5Z" fill="white"/>
<path d="M126.55 277.55L115.86 272.34L116.61 270.81L127.3 276.01L126.55 277.55Z" fill="white"/>
<path d="M737.43 574.79L726.73 569.58L727.48 568.05L738.18 573.25L737.43 574.79Z" fill="white"/>
<path d="M121.65 288.1L110.78 283.26L111.48 281.7L122.35 286.54L121.65 288.1Z" fill="white"/>
<path d="M742.55 563.89L731.68 559.06L732.38 557.5L743.25 562.33L742.55 563.89Z" fill="white"/>
<path d="M117.13 298.81L106.1 294.36L106.74 292.78L117.77 297.23L117.13 298.81Z" fill="white"/>
<path d="M747.29 552.82L736.26 548.37L736.9 546.78L747.94 551.23L747.29 552.82Z" fill="white"/>
<path d="M109.21 320.68L97.8999 317.01L98.4299 315.38L109.74 319.05L109.21 320.68Z" fill="white"/>
<path d="M755.61 530.21L744.29 526.54L744.82 524.92L756.14 528.58L755.61 530.21Z" fill="white"/>
<path d="M105.83 331.8L94.3999 328.53L94.8699 326.89L106.31 330.16L105.83 331.8Z" fill="white"/>
<path d="M748.149 513.728L747.679 515.372L759.12 518.646L759.59 517.002L748.149 513.728Z" fill="white"/>
<path d="M91.708 338.474L91.2952 340.133L102.843 343.006L103.256 341.347L91.708 338.474Z" fill="white"/>
<path d="M762.32 507.08L750.77 504.21L751.18 502.55L762.73 505.42L762.32 507.08Z" fill="white"/>
<path d="M88.9766 350.26L88.6213 351.932L100.262 354.404L100.617 352.732L88.9766 350.26Z" fill="white"/>
<path d="M765.06 495.35L753.42 492.88L753.77 491.21L765.42 493.68L765.06 495.35Z" fill="white"/>
<path d="M84.713 373.895L84.4756 375.588L96.2603 377.24L96.4977 375.547L84.713 373.895Z" fill="white"/>
<path d="M757.706 468.253L757.468 469.947L769.253 471.599L769.49 469.905L757.706 468.253Z" fill="white"/>
<path d="M83.2268 385.888L83.0481 387.589L94.8829 388.833L95.0617 387.132L83.2268 385.888Z" fill="white"/>
<path d="M759.163 456.769L758.984 458.469L770.819 459.713L770.997 458.013L759.163 456.769Z" fill="white"/>
<path d="M82.1581 397.919L82.0388 399.625L93.9098 400.455L94.0291 398.749L82.1581 397.919Z" fill="white"/>
<path d="M760.092 445.136L759.974 446.842L771.845 447.668L771.964 445.962L760.092 445.136Z" fill="white"/>
<path d="M81.4765 409.908L81.4165 411.616L93.3091 412.034L93.3691 410.325L81.4765 409.908Z" fill="white"/>
<path d="M760.779 433.602L760.719 435.311L772.612 435.726L772.672 434.017L760.779 433.602Z" fill="white"/>
<path d="M93.3107 433.566L81.418 433.982L81.4776 435.691L93.3704 435.275L93.3107 433.566Z" fill="white"/>
<path d="M772.551 409.896L760.658 410.311L760.718 412.02L772.611 411.605L772.551 409.896Z" fill="white"/>
<path d="M93.9128 445.166L82.0417 445.996L82.161 447.702L94.032 446.872L93.9128 445.166Z" fill="white"/>
<path d="M771.902 397.846L760.031 398.677L760.15 400.382L772.021 399.552L771.902 397.846Z" fill="white"/>
<path d="M94.911 456.751L83.0764 457.997L83.2555 459.697L95.0901 458.451L94.911 456.751Z" fill="white"/>
<path d="M770.836 385.83L759.002 387.082L759.182 388.783L771.016 387.531L770.836 385.83Z" fill="white"/>
<path d="M96.2668 468.305L84.4832 469.965L84.7217 471.658L96.5053 469.998L96.2668 468.305Z" fill="white"/>
<path d="M769.308 373.936L757.524 375.596L757.762 377.29L769.546 375.629L769.308 373.936Z" fill="white"/>
<path d="M88.9701 495.35L88.6201 493.68L100.26 491.21L100.61 492.88L88.9701 495.35Z" fill="white"/>
<path d="M753.78 354.38L753.42 352.7L765.06 350.24L765.42 351.91L753.78 354.38Z" fill="white"/>
<path d="M102.855 502.536L91.3101 505.421L91.7246 507.08L103.27 504.195L102.855 502.536Z" fill="white"/>
<path d="M751.18 343.04L750.77 341.38L762.32 338.51L762.73 340.17L751.18 343.04Z" fill="white"/>
<path d="M94.8699 518.7L94.3999 517.06L105.84 513.79L106.31 515.43L94.8699 518.7Z" fill="white"/>
<path d="M748.2 331.8L747.73 330.16L759.17 326.89L759.64 328.53L748.2 331.8Z" fill="white"/>
<path d="M98.4299 530.21L97.8999 528.58L109.22 524.92L109.74 526.54L98.4299 530.21Z" fill="white"/>
<path d="M744.82 320.67L744.29 319.05L755.61 315.38L756.13 317.01L744.82 320.67Z" fill="white"/>
<path d="M106.74 552.81L106.1 551.23L117.13 546.78L117.77 548.37L106.74 552.81Z" fill="white"/>
<path d="M736.9 298.81L736.26 297.22L747.3 292.77L747.94 294.36L736.9 298.81Z" fill="white"/>
<path d="M111.48 563.88L110.78 562.33L121.66 557.5L122.35 559.05L111.48 563.88Z" fill="white"/>
<path d="M732.38 288.09L731.68 286.53L742.55 281.7L743.25 283.26L732.38 288.09Z" fill="white"/>
<path d="M116.61 574.78L115.86 573.25L126.55 568.05L127.3 569.58L116.61 574.78Z" fill="white"/>
<path d="M727.48 277.54L726.73 276.01L737.43 270.8L738.18 272.34L727.48 277.54Z" fill="white"/>
<path d="M122.12 585.5L121.31 583.99L131.82 578.42L132.62 579.93L122.12 585.5Z" fill="white"/>
<path d="M722.22 267.17L721.41 265.66L731.92 260.09L732.72 261.6L722.22 267.17Z" fill="white"/>
<path d="M134.23 606.32L133.33 604.87L143.42 598.58L144.33 600.03L134.23 606.32Z" fill="white"/>
<path d="M710.62 247L709.71 245.56L719.8 239.26L720.71 240.71L710.62 247Z" fill="white"/>
<path d="M140.83 616.4L139.88 614.99L149.74 608.35L150.7 609.77L140.83 616.4Z" fill="white"/>
<path d="M704.29 237.24L703.33 235.82L713.2 229.18L714.16 230.6L704.29 237.24Z" fill="white"/>
<path d="M147.78 626.25L146.77 624.87L156.4 617.89L157.41 619.27L147.78 626.25Z" fill="white"/>
<path d="M697.63 227.7L696.63 226.32L706.26 219.34L707.26 220.72L697.63 227.7Z" fill="white"/>
<path d="M155.07 635.85L154.01 634.5L163.39 627.19L164.44 628.54L155.07 635.85Z" fill="white"/>
<path d="M690.64 218.39L689.59 217.05L698.97 209.74L700.02 211.09L690.64 218.39Z" fill="white"/>
<path d="M170.63 654.26L169.48 652.99L178.32 645.04L179.47 646.31L170.63 654.26Z" fill="white"/>
<path d="M675.71 200.54L674.56 199.28L683.41 191.33L684.55 192.6L675.71 200.54Z" fill="white"/>
<path d="M178.88 663.04L177.69 661.81L186.25 653.57L187.44 654.79L178.88 663.04Z" fill="white"/>
<path d="M667.78 192.02L666.59 190.79L675.16 182.54L676.35 183.77L667.78 192.02Z" fill="white"/>
<path d="M187.44 671.53L186.2 670.35L194.47 661.81L195.7 662.99L187.44 671.53Z" fill="white"/>
<path d="M659.56 183.78L658.33 182.59L666.6 174.05L667.83 175.24L659.56 183.78Z" fill="white"/>
<path d="M196.28 679.72L195.01 678.58L202.97 669.76L204.25 670.9L196.28 679.72Z" fill="white"/>
<path d="M651.06 175.83L649.79 174.68L657.75 165.86L659.02 167.01L651.06 175.83Z" fill="white"/>
<path d="M214.81 695.15L213.46 694.1L220.79 684.75L222.14 685.8L214.81 695.15Z" fill="white"/>
<path d="M633.25 160.83L631.9 159.78L639.23 150.43L640.57 151.48L633.25 160.83Z" fill="white"/>
<path d="M224.47 702.38L223.08 701.37L230.08 691.77L231.46 692.77L224.47 702.38Z" fill="white"/>
<path d="M623.95 153.82L622.57 152.81L629.57 143.21L630.95 144.21L623.95 153.82Z" fill="white"/>
<path d="M234.37 709.26L232.95 708.3L239.61 698.46L241.02 699.42L234.37 709.26Z" fill="white"/>
<path d="M614.43 147.12L613.01 146.17L619.66 136.32L621.08 137.28L614.43 147.12Z" fill="white"/>
<path d="M244.51 715.79L243.06 714.89L249.36 704.82L250.81 705.73L244.51 715.79Z" fill="white"/>
<path d="M604.67 140.76L603.22 139.86L609.52 129.79L610.98 130.7L604.67 140.76Z" fill="white"/>
<path d="M265.44 727.78L263.93 726.98L269.51 716.49L271.03 717.29L265.44 727.78Z" fill="white"/>
<path d="M584.52 129.09L583.01 128.29L588.59 117.8L590.11 118.6L584.52 129.09Z" fill="white"/>
<path d="M276.21 733.22L274.67 732.47L279.89 721.8L281.43 722.55L276.21 733.22Z" fill="white"/>
<path d="M574.14 123.79L572.61 123.04L577.83 112.36L579.37 113.11L574.14 123.79Z" fill="white"/>
<path d="M287.16 738.28L285.59 737.59L290.44 726.74L292 727.44L287.16 738.28Z" fill="white"/>
<path d="M563.6 118.84L562.04 118.15L566.88 107.3L568.44 108L563.6 118.84Z" fill="white"/>
<path d="M298.28 742.96L296.69 742.32L301.15 731.31L302.74 731.95L298.28 742.96Z" fill="white"/>
<path d="M552.88 114.27L551.29 113.63L555.75 102.63L557.34 103.27L552.88 114.27Z" fill="white"/>
<path d="M320.98 751.14L319.35 750.61L323.03 739.32L324.66 739.85L320.98 751.14Z" fill="white"/>
<path d="M531 106.26L529.38 105.74L533.05 94.4399L534.68 94.9699L531 106.26Z" fill="white"/>
<path d="M332.53 754.63L330.88 754.16L334.17 742.75L335.81 743.22L332.53 754.63Z" fill="white"/>
<path d="M519.87 102.84L518.22 102.37L521.5 90.95L523.15 91.42L519.87 102.84Z" fill="white"/>
<path d="M344.2 757.72L342.54 757.3L345.41 745.78L347.07 746.2L344.2 757.72Z" fill="white"/>
<path d="M508.62 99.8001L506.96 99.3901L509.84 87.8601L511.5 88.2801L508.62 99.8001Z" fill="white"/>
<path d="M356.774 748.483L354.309 760.094L355.981 760.449L358.447 748.838L356.774 748.483Z" fill="white"/>
<path d="M497.27 97.1499L495.59 96.7999L498.07 85.1899L499.75 85.5499L497.27 97.1499Z" fill="white"/>
<path d="M379.664 752.441L378.015 764.206L379.708 764.443L381.358 752.678L379.664 752.441Z" fill="white"/>
<path d="M474.907 81.49L473.244 93.2512L474.937 93.4906L476.6 81.7294L474.907 81.49Z" fill="white"/>
<path d="M391.264 753.972L390.028 765.777L391.729 765.955L392.965 754.15L391.264 753.972Z" fill="white"/>
<path d="M458.695 81.5203L457.507 93.2815L459.2 93.4525L460.388 81.6913L458.695 81.5203Z" fill="white"/>
<path d="M402.849 754.98L402.025 766.821L403.731 766.94L404.555 755.099L402.849 754.98Z" fill="white"/>
<path d="M451.153 77.2611L450.322 89.1311L452.032 89.2508L452.863 77.3808L451.153 77.2611Z" fill="white"/>
<path d="M414.493 755.62L414.081 767.483L415.79 767.542L416.202 755.679L414.493 755.62Z" fill="white"/>
<path d="M438.203 77.9987L437.784 89.8613L439.493 89.9216L439.912 78.059L438.203 77.9987Z" fill="white"/>
<path d="M427.05 795.4C334.628 795.268 245.551 760.811 177.099 698.713C108.647 636.615 65.7024 551.305 56.5959 459.333C47.4894 367.361 72.8708 275.285 127.816 200.97C182.761 126.654 263.351 75.3972 353.953 57.1436C444.554 38.89 538.705 54.9412 618.141 102.183C697.576 149.425 756.631 224.489 783.849 312.812C811.067 401.135 804.507 496.419 765.441 580.178C726.376 663.938 657.59 730.2 572.43 766.11C526.428 785.536 476.985 795.497 427.05 795.4ZM427.05 54.1899C335.652 54.3121 247.558 88.379 179.858 149.782C112.158 211.184 69.6785 295.545 60.6615 386.497C51.6444 477.449 76.7323 568.508 131.058 642.008C185.384 715.508 265.074 766.21 354.669 784.276C444.263 802.341 537.374 786.484 615.938 739.78C694.502 693.075 752.917 618.854 779.851 531.515C806.785 444.175 800.317 349.945 761.702 267.105C723.087 184.265 655.079 118.722 570.87 83.1899C525.363 63.9648 476.451 54.102 427.05 54.1899Z" fill="white"/>
<path d="M718.06 138.49L694.74 161.76L697.59 164.6L720.91 141.33L718.06 138.49Z" fill="white"/>
<path d="M169.17 686.1L145.85 709.36L148.7 712.2L172.02 688.93L169.17 686.1Z" fill="white"/>
<path d="M692.52 681.04L689.68 683.88L713 707.14L715.84 704.31L692.52 681.04Z" fill="white"/>
<path d="M140.79 136.28L164.11 159.54L166.95 156.7L143.63 133.44L140.79 136.28Z" fill="white"/>
<path d="M828 422.08H813.51V435.52H829.7V439.52H808.7V402.27H828.88V406.27H813.51V418.05H828V422.08Z" fill="white"/>
<path d="M830.7 440.55H807.7V401.28H829.88V407.28H814.51V417.06H829V423.06H814.51V434.51H830.7V440.55ZM809.7 438.55H828.7V436.55H812.51V421.08H827V419.08H812.51V405.31H827.87V403.31H809.69L809.7 438.55Z" fill="white"/>
<path d="M411.29 38.28V1H416.56L428.56 19.86C431.05 23.7562 433.281 27.8116 435.24 32L435.35 31.95C434.91 26.95 434.8 22.43 434.8 16.63V1H439.34V38.28H434.46L422.6 19.36C420.02 15.3567 417.683 11.2026 415.6 6.92L415.44 6.97C415.71 11.67 415.82 16.15 415.82 22.35V38.28H411.29Z" fill="white"/>
<path d="M440.34 39.28H433.91L421.75 19.89C419.75 16.62 418.03 13.78 416.65 11.21C416.78 14.51 416.83 18 416.83 22.35V39.28H410.29V0H417.11L429.38 19.33C431.13 22.09 432.67 24.72 434.02 27.28C433.84 23.81 433.8 20.39 433.8 16.6V0H440.34V39.28ZM435.02 37.28H438.34V2H435.8V16.6C435.8 22.03 435.89 26.71 436.35 31.83L436.41 32.51L434.76 33.32L434.33 32.39C432.379 28.2504 430.161 24.242 427.69 20.39L416 2H412.28V37.28H414.82V22.35C414.82 16.12 414.71 11.69 414.44 7.03L414.39 6.27L416.13 5.67999L416.51 6.49001C418.56 10.744 420.874 14.8654 423.44 18.83L435.02 37.28Z" fill="white"/>
<path d="M415.2 842.59C417.813 844.152 420.795 844.991 423.84 845.02C428.78 845.02 431.66 842.42 431.66 838.66C431.66 835.17 429.66 833.18 424.66 831.25C418.56 829.09 414.79 825.94 414.79 820.68C414.79 814.87 419.62 810.56 426.88 810.56C429.744 810.46 432.586 811.09 435.14 812.39L433.81 816.31C431.626 815.143 429.186 814.535 426.71 814.54C421.61 814.54 419.71 817.54 419.71 820.13C419.71 823.61 421.98 825.33 427.14 827.32C433.46 829.75 436.68 832.79 436.68 838.27C436.68 844.02 432.41 849 423.59 849C419.99 849 416.05 848 414.06 846.62L415.2 842.59Z" fill="white"/>
<path d="M423.51 850C419.83 850 415.68 849 413.42 847.45L412.8 847.04L414.61 841.04L415.72 841.72C418.178 843.184 420.98 843.971 423.84 844C428.05 844 430.66 842 430.66 838.64C430.66 836.09 429.66 834.21 424.26 832.16C417.2 829.66 413.75 825.9 413.75 820.66C413.75 814.11 419.13 809.54 426.84 809.54C429.88 809.444 432.894 810.133 435.59 811.54L436.31 811.94L434.31 817.78L433.26 817.21C431.227 816.112 428.95 815.545 426.64 815.56C422.18 815.56 420.64 818.03 420.64 820.15C420.64 822.9 422.29 824.42 427.43 826.41C434.56 829.15 437.61 832.71 437.61 838.29C437.6 843.68 433.91 850 423.51 850ZM415.16 846.17C417.775 847.385 420.626 848.01 423.51 848C430.85 848 435.6 844.18 435.6 838.27C435.6 833.52 433.1 830.71 426.7 828.27C421.59 826.27 418.63 824.33 418.63 820.15C418.63 816.98 421.15 813.56 426.63 813.56C428.875 813.554 431.097 814.021 433.15 814.93L433.84 812.93C431.627 811.997 429.241 811.547 426.84 811.61C420.31 811.61 415.75 815.36 415.75 820.73C415.75 825.08 418.68 828.14 424.96 830.36C429.59 832.14 432.66 834.23 432.66 838.71C432.66 843.19 429.2 846 423.84 846C421.038 845.963 418.283 845.278 415.79 844L415.16 846.17Z" fill="white"/>
<path d="M3.29004 412.78L6.84004 426.39C7.62004 429.39 8.34004 432.14 8.84004 434.91H9.00005C9.61005 432.2 10.5 429.32 11.39 426.44L15.7701 412.78H19.87L24 426.17C25 429.38 25.7701 432.17 26.3801 434.91H26.55C27.0532 431.978 27.7209 429.077 28.55 426.22L32.37 412.78H37.2L28.55 439.55H24.11L20.01 426.78C19.0666 423.889 18.2722 420.952 17.6301 417.98H17.51C16.8744 420.975 16.063 423.93 15.08 426.83L10.75 439.55H6.40004L-1.69995 412.78H3.29004Z" fill="white"/>
<path d="M29.36 440.55H23.46L19.14 427.08C18.59 425.33 18.14 423.71 17.65 422.08C17.16 423.9 16.65 425.59 16.11 427.17L11.55 440.58H5.64999L-3 411.78H4.11L7.86 426.14C8.28 427.78 8.69 429.35 9.06 430.89C9.5 429.31 10 427.72 10.48 426.15L15 411.78H20.56L25 425.87C25.55 427.62 26 429.23 26.43 430.74C26.81 429.11 27.25 427.5 27.69 425.95L31.69 411.78H38.69L29.36 440.55ZM24.92 438.55H27.92L35.92 413.77H33.23L29.61 426.49C28.7873 429.308 28.1197 432.169 27.61 435.06L27.48 435.9H25.66L25.49 435.12C24.89 432.49 24.14 429.74 23.12 426.45L19.18 413.77H16.5L12.34 426.77C11.47 429.57 10.58 432.47 9.98 435.15L9.8 435.93H8L7.85001 435.1C7.36001 432.39 6.64001 429.64 5.85001 426.72L2.49001 413.8H-0.380005L7.11 438.58H10.11L14.21 426.58C15.1778 423.718 15.9824 420.803 16.62 417.85L16.78 417.06H18.52L18.68 417.85C19.33 420.92 20.1 423.55 21.04 426.55L24.92 438.55Z" fill="white"/>
<path d="M717.71 113.7L732.41 99.1001L734.84 101.53L732.92 114.45C732.542 117.1 731.977 119.72 731.23 122.29H731.3C733.115 120.1 735.048 118.011 737.09 116.03L743.24 109.92L745.33 112.02L730.63 126.62L728.39 124.37L730.39 111.48C730.771 108.745 731.335 106.039 732.08 103.38H731.98C730.25 105.38 728.54 107.15 726.09 109.58L719.81 115.82L717.71 113.7Z" fill="white"/>
<path d="M750.32 132.63L743.63 125.92L738.33 131.19L745.79 138.66L744.2 140.24L734.51 130.54L749.22 115.94L758.51 125.26L756.92 126.84L749.85 119.75L745.2 124.36L751.89 131.07L750.32 132.63Z" fill="white"/>
<path d="M110.33 138.3L95.6899 123.63L98.1299 121.21L111.08 123.13C113.737 123.5 116.364 124.061 118.94 124.81V124.74C116.76 122.938 114.677 121.022 112.7 119L106.57 112.86L108.68 110.77L123.31 125.44L121.05 127.68L108.14 125.68C105.392 125.303 102.672 124.742 99.9999 124L99.9399 124.1C101.94 125.83 103.73 127.54 106.16 129.97L112.41 136.24L110.33 138.3Z" fill="white"/>
<path d="M130 118.73L111 108.42L113.36 106.08L122.82 111.46C125.16 112.78 127.44 114.15 129.16 115.25L129.21 115.2C127.875 113.101 126.65 110.935 125.54 108.71L120.48 99L122.81 96.68L132.35 102.03C134.487 103.201 136.563 104.479 138.57 105.86H138.62C137.37 103.86 136.23 101.78 134.94 99.41L129.85 89.75L132.13 87.48L141.86 107L139.53 109.32L129.73 103.85C127.684 102.753 125.71 101.527 123.82 100.18L123.77 100.23C125.037 102.2 126.186 104.244 127.21 106.35L132.37 116.43L130 118.73Z" fill="white"/>
<path d="M145.43 729.36C144.827 727.503 143.8 725.811 142.43 724.42C140.16 722.14 137.8 721.82 136.32 723.3C134.84 724.78 135.08 726.36 136.64 729.45C138.64 733.11 139.1 736.09 137.02 738.15C134.73 740.42 130.81 739.88 127.46 736.53C126.115 735.262 125.064 733.716 124.38 732L126.54 731.08C127.098 732.583 127.974 733.948 129.11 735.08C131.46 737.43 133.55 737.14 134.56 736.14C135.93 734.77 135.56 733.05 133.97 729.89C132.02 726.02 131.74 723.34 133.9 721.2C136.06 719.06 140.09 718.97 144.16 723.04C145.697 724.534 146.876 726.356 147.61 728.37L145.43 729.36Z" fill="white"/>
<path d="M132 711.32L121.67 730.32L119.35 728L124.74 718.56C126.06 716.23 127.44 713.95 128.55 712.23H128.5C126.394 713.56 124.221 714.782 121.99 715.89L112.27 720.95L110 718.52L115.36 709.02C116.532 706.885 117.814 704.812 119.2 702.81C117.2 704.05 115.11 705.19 112.74 706.47L103 711.51L100.72 709.23L120.3 699.52L122.63 701.85L117.14 711.63C116.043 713.669 114.817 715.637 113.47 717.52L113.52 717.57C115.49 716.301 117.538 715.156 119.65 714.14L129.71 709L132 711.32Z" fill="white"/>
<path d="M740.22 704.11C738.341 704.705 736.629 705.732 735.22 707.11C732.93 709.37 732.62 711.72 734.1 713.2C735.58 714.68 737.17 714.44 740.26 712.88C743.93 710.93 746.92 710.43 748.98 712.5C751.26 714.79 750.72 718.7 747.36 722.04C746.088 723.384 744.539 724.435 742.82 725.12L741.89 722.96C743.394 722.408 744.759 721.534 745.89 720.4C748.27 718.07 748 716 747 715C745.63 713.63 743.91 714 740.74 715.59C736.86 717.54 734.17 717.82 732.02 715.66C729.87 713.5 729.79 709.48 733.87 705.43C735.367 703.902 737.189 702.73 739.2 702L740.22 704.11Z" fill="white"/>
<path d="M722.86 730.44L729.59 723.76L724.31 718.48L716.82 725.92L715.23 724.33L724.96 714.67L739.59 729.34L730.25 738.61L728.67 737L735.77 729.94L731.15 725.3L724.43 732L722.86 730.44Z" fill="white"/>
<path d="M429 693C375.599 693 323.397 677.165 278.996 647.497C234.595 617.829 199.988 575.661 179.553 526.325C159.117 476.989 153.77 422.701 164.188 370.326C174.606 317.951 200.321 269.841 238.081 232.081C275.841 194.321 323.951 168.606 376.326 158.188C428.701 147.77 482.989 153.117 532.325 173.553C581.661 193.988 623.829 228.595 653.497 272.996C683.165 317.397 699 369.599 699 423C698.927 494.586 670.457 563.219 619.838 613.838C569.219 664.457 500.586 692.927 429 693ZM429 159.984C376.89 159.984 325.949 175.437 282.621 204.388C239.293 233.339 205.523 274.488 185.581 322.632C165.639 370.776 160.421 423.752 170.588 474.861C180.754 525.97 205.847 572.917 242.695 609.765C279.543 646.612 326.489 671.706 377.599 681.872C428.708 692.038 481.684 686.821 529.828 666.879C577.971 646.937 619.121 613.167 648.072 569.838C677.023 526.51 692.475 475.57 692.475 423.46C692.524 353.524 664.795 286.433 615.387 236.938C565.978 187.443 498.935 159.598 429 159.525V159.984Z" fill="#29859A"/>
<path d="M235.734 419.692H162.215V426.217H235.734V419.692Z" fill="#29859A"/>
<path d="M694.864 428.881H621.345V435.406H694.864V428.881Z" fill="#29859A"/>
<path d="M432.766 155.664H426.241V229.183H432.766V155.664Z" fill="#29859A"/>
<path d="M432.766 614.793H426.241V688.313H432.766V614.793Z" fill="#29859A"/>
</svg>
