<svg width="515" height="846" viewBox="0 0 515 846" fill="none" xmlns="http://www.w3.org/2000/svg">
<g clip-path="url(#clip0_867_1970)">
<path d="M373.255 846C451.539 846 515 831.259 515 813.075C515 794.891 451.539 780.15 373.255 780.15C294.972 780.15 231.511 794.891 231.511 813.075C231.511 831.259 294.972 846 373.255 846Z" fill="#B3C1B0"/>
<path d="M479.11 813.075C472.386 821.086 445.283 819.163 429.153 815.078C417.272 812.033 401.39 794.489 401.39 794.489C400.471 786.581 401.329 778.572 403.906 771.017L441.446 768.414C443.746 774.554 447.69 779.988 452.873 784.155C462.568 791.846 485.422 805.625 479.11 813.075Z" fill="#1B2346"/>
<path d="M258.243 815.839C265.462 823.329 291.492 817.401 307.333 812.274C319.008 808.268 333.653 789.963 333.653 789.963C334.03 781.994 332.623 774.041 329.527 766.651H292.07C290.134 772.875 286.55 778.497 281.674 782.953C272.557 791.205 251.601 808.829 258.243 815.839Z" fill="#1B2346"/>
<path d="M437.816 443.729L446.396 773.661H400.317L359.394 517.229L333.488 773.661H287.284L281.55 445.531L437.816 443.729Z" fill="#1B2346"/>
<path d="M315.254 161.061C339.139 179.606 355.888 181.929 385.714 173.798C412.652 166.869 419.5 144.638 428.204 119.283C447.304 82.1526 452.956 52.1915 403.452 23.8326C356.259 -3.20443 316.327 27.037 301.971 51.8711C286.46 78.5877 296.113 98.2146 289.595 119.243C296.814 137.028 298.918 148.644 315.254 161.061Z" fill="#140137"/>
<path d="M337.86 175.641C338.273 180.808 339.263 202.317 337.654 204.16C336.045 206.003 320.658 208.165 313.109 210.128C315.13 219.781 340.542 252.747 350.236 255.951C350.755 256.176 351.319 256.286 351.886 256.271C352.517 256.157 353.12 255.926 353.66 255.59C373.008 244.696 393.51 229.635 402.71 209.848C400.317 209.848 386.786 207.605 385.219 204.36C382.919 194.958 382.346 185.236 383.527 175.641H337.86Z" fill="#EFC2B2"/>
<g opacity="0.3">
<path d="M384.187 201.116C382.697 192.769 382.447 184.257 383.445 175.841H337.86C338.19 179.847 339.51 197.15 337.86 203.559C351.144 209.728 372.843 205.121 384.187 201.116Z" fill="#D56563"/>
</g>
<path d="M298.753 110.952C298.195 110.048 297.561 109.19 296.855 108.389C295.704 107.116 294.245 106.141 292.611 105.549C290.976 104.957 289.216 104.768 287.487 104.998C285.759 105.228 284.116 105.871 282.706 106.868C281.296 107.865 280.162 109.185 279.405 110.712C278.939 111.683 278.593 112.705 278.374 113.756C277.481 118.168 277.771 122.728 279.216 127C280.661 131.271 283.212 135.111 286.625 138.149C289.075 140.576 292.307 142.117 295.783 142.515C297.244 142.618 298.698 142.237 299.908 141.434C300.98 140.571 301.78 139.433 302.218 138.149C304.795 128.994 303.55 119.222 298.753 110.952Z" fill="#EFC2B2"/>
<g opacity="0.1">
<path d="M298.753 110.952C298.195 110.048 297.561 109.19 296.855 108.389C295.704 107.116 294.245 106.141 292.611 105.549C290.976 104.957 289.216 104.768 287.487 104.998C285.759 105.228 284.116 105.871 282.706 106.868C281.296 107.865 280.162 109.185 279.405 110.712C278.939 111.683 278.593 112.705 278.374 113.756C277.481 118.168 277.771 122.728 279.216 127C280.661 131.271 283.212 135.111 286.625 138.149C289.075 140.576 292.307 142.117 295.783 142.515C297.244 142.618 298.698 142.237 299.908 141.434C300.98 140.571 301.78 139.433 302.218 138.149C304.795 128.994 303.55 119.222 298.753 110.952Z" fill="#D56563"/>
</g>
<g opacity="0.3">
<path d="M282.994 114.317C279.529 117.201 283.448 131.34 288.893 136.187C290.839 138.133 293.42 139.364 296.195 139.671C297.389 139.785 298.587 139.487 299.578 138.83C300.439 138.135 301.083 137.219 301.434 136.187C302.961 132.622 291.245 107.587 282.994 114.317Z" fill="#D56563"/>
</g>
<path d="M284.191 115.238C286.193 115.834 287.953 117.025 289.223 118.643C290.644 120.153 291.876 121.82 292.895 123.61C293.844 125.252 294.339 127.054 295.205 128.737C295.686 129.73 295.966 130.805 296.03 131.901C296.092 132.888 296.092 133.878 296.03 134.865C296.03 135.626 297.226 135.626 297.268 134.865C297.288 132.67 297.164 130.476 296.896 128.296C296.536 126.145 295.644 124.111 294.297 122.368C292.964 120.626 291.458 119.016 289.801 117.561C288.268 116.144 286.374 115.149 284.314 114.677C283.943 114.677 283.778 115.158 284.314 115.238H284.191Z" fill="#D56563"/>
<path d="M294.545 123.77C294.015 123.167 293.273 122.78 292.463 122.683C291.653 122.587 290.836 122.789 290.172 123.249C289.772 123.629 289.457 124.085 289.244 124.587C289.031 125.09 288.926 125.63 288.935 126.173C288.915 127.435 289.242 128.68 289.884 129.778C290.251 130.438 290.694 131.056 291.204 131.62C291.433 131.891 291.697 132.133 291.987 132.341C292.248 132.614 292.574 132.82 292.936 132.942C293.307 132.942 293.803 132.702 293.596 132.261C293.39 131.821 292.936 131.46 292.606 131.06L291.657 129.818C291.047 128.968 290.638 127.996 290.461 126.974C290.332 126.129 290.507 125.266 290.956 124.531C291.091 124.365 291.259 124.229 291.451 124.13H291.822H292.235H292.482H292.812C293.095 124.232 293.349 124.397 293.555 124.611C294.215 125.212 295.205 124.25 294.545 123.65V123.77Z" fill="#D56563"/>
<path d="M415.787 131.1C415.787 137.388 414.508 179.406 372.843 187.177C351.557 191.182 324.783 187.617 309.809 168.671C291.327 145.239 294.586 86.9994 297.433 77.3862C304.322 54.5549 328.496 41.3368 355.476 42.2981C417.314 44.3809 416.695 85.4372 415.787 131.1Z" fill="#EFC2B2"/>
<g opacity="0.3">
<path d="M311.294 91.966C317.028 86.3984 311.294 76.625 315.419 75.2631C339.799 71.2577 364.221 79.2686 387.158 71.2577C387.158 79.6291 394.336 83.7948 400.07 89.3625C410.135 101.94 397.223 121.406 413.023 129.778L415.622 131.26C416.529 85.5973 417.107 44.5811 355.352 42.4181C328.372 41.4968 304.198 54.6749 297.309 77.5062C295.119 89.9636 294.454 102.629 295.329 115.238C297.966 106.03 303.559 97.8777 311.294 91.966Z" fill="#D56563"/>
</g>
<path d="M374.08 139.832C368.717 137.508 359.353 138.55 351.721 139.551C344.09 140.553 336.746 137.789 330.765 140.673C318.389 146.641 319.049 167.109 322.803 180.728C333.859 199.634 380.062 193.705 384.682 181.529C391.118 164.546 389.385 146.801 374.08 139.832ZM364.427 175.881C358.487 175.881 358.899 168.15 352.588 168.911C346.276 169.673 348.669 176.922 341.449 177.804C334.23 178.685 326.846 157.055 332.497 149.044C338.149 141.033 345.822 147.082 352.835 146.16C359.848 145.239 363.726 139.671 372.224 144.838C380.722 150.006 375.813 176.121 364.427 175.801V175.881Z" fill="#140137"/>
<path opacity="0.3" d="M350.938 113.355C356.465 113.355 364.675 124.331 359.188 129.618C357.999 130.762 356.546 131.614 354.949 132.103C353.353 132.592 351.659 132.704 350.009 132.43C348.359 132.156 346.8 131.503 345.462 130.527C344.124 129.55 343.045 128.277 342.316 126.814C341.967 125.38 341.914 123.894 342.159 122.44C342.404 120.987 342.943 119.595 343.744 118.344C344.545 117.093 345.593 116.009 346.828 115.152C348.062 114.296 349.459 113.686 350.938 113.355Z" fill="#D56563"/>
<path opacity="0.5" d="M352.794 120.165C354.898 120.165 357.538 122.087 355.475 124.17C355.076 124.599 354.57 124.92 354.006 125.104C353.442 125.287 352.838 125.326 352.254 125.218C351.669 125.109 351.124 124.856 350.669 124.483C350.215 124.11 349.867 123.63 349.659 123.089C348.999 120.766 351.103 120.165 352.794 120.165Z" fill="white"/>
<path d="M349.452 103.222C348.091 108.429 345.575 113.356 343.801 118.402C342.81 120.608 342.237 122.969 342.109 125.372C342.107 126.926 342.649 128.435 343.646 129.65C344.643 130.866 346.036 131.716 347.596 132.061C348.38 132.061 348.627 130.94 347.967 130.619C347.216 130.326 346.537 129.882 345.976 129.316C345.414 128.75 344.982 128.075 344.708 127.335C344.317 125.877 344.317 124.346 344.708 122.889C345.203 120.926 345.905 118.883 346.482 117.081C347.952 112.593 349.178 108.034 350.154 103.422C350.154 102.981 349.576 102.781 349.452 103.422V103.222Z" fill="#D56563"/>
<path d="M336.953 148.764C346.524 152.409 355.641 151.648 367.356 147.362C366.7 150.568 364.983 153.477 362.465 155.646C359.948 157.816 356.769 159.127 353.413 159.379C349.885 159.438 346.421 158.454 343.482 156.558C340.542 154.663 338.265 151.945 336.953 148.764Z" fill="#D56563"/>
<path opacity="0.3" d="M359.312 162.142C359.312 164.786 355.64 165.747 351.061 165.747C346.482 165.747 342.811 164.786 342.811 162.142C342.811 159.499 346.482 159.459 351.061 159.459C355.64 159.459 359.312 159.539 359.312 162.142Z" fill="#D56563"/>
<path d="M398.956 93.6483C395.261 89.9571 390.459 87.4935 385.237 86.6087C380.014 85.724 374.637 86.4634 369.873 88.7216C364.716 91.4453 369.584 99.4563 374.452 96.332C377.804 94.5745 381.585 93.7321 385.391 93.8943C389.197 94.0565 392.887 95.2173 396.068 97.2533C398.213 98.8554 400.895 95.4107 398.956 93.6483Z" fill="#140137"/>
<path d="M305.188 93.8887C308.887 90.2028 313.688 87.7428 318.909 86.8583C324.13 85.9739 329.506 86.7099 334.271 88.9619C339.387 91.7257 334.56 99.6967 329.651 96.5724C326.302 94.82 322.526 93.9838 318.726 94.1531C314.926 94.3225 311.245 95.4909 308.076 97.5337C305.889 99.0958 303.249 95.6511 305.188 93.8887Z" fill="#140137"/>
<path opacity="0.3" d="M314.965 143.837C320.183 143.837 324.412 140.896 324.412 137.268C324.412 133.64 320.183 130.699 314.965 130.699C309.748 130.699 305.518 133.64 305.518 137.268C305.518 140.896 309.748 143.837 314.965 143.837Z" fill="#D56563"/>
<path opacity="0.3" d="M394.501 144.238C399.718 144.238 403.948 141.297 403.948 137.669C403.948 134.041 399.718 131.1 394.501 131.1C389.283 131.1 385.054 134.041 385.054 137.669C385.054 141.297 389.283 144.238 394.501 144.238Z" fill="#D56563"/>
<path d="M354.815 131.02V130.779C354.917 130.64 355.043 130.518 355.187 130.419H355.393C355.525 130.309 355.68 130.227 355.847 130.179H356.094H356.342H357.249C357.427 130.158 357.607 130.158 357.786 130.179H357.208C357.383 130.277 357.581 130.328 357.783 130.329C357.985 130.329 358.183 130.278 358.359 130.181C358.534 130.084 358.68 129.944 358.782 129.775C358.884 129.605 358.939 129.413 358.941 129.217C358.939 129.022 358.885 128.831 358.783 128.662C358.682 128.493 358.537 128.353 358.363 128.256C358.184 128.168 357.986 128.122 357.786 128.122C357.585 128.122 357.387 128.168 357.208 128.256H357.497C356.988 128.348 356.508 128.554 356.094 128.857H355.847H355.599H355.352C354.727 129.351 354.232 129.982 353.908 130.699C353.812 130.796 353.759 130.925 353.759 131.06C353.759 131.194 353.812 131.323 353.908 131.42C354.015 131.516 354.154 131.569 354.3 131.569C354.445 131.569 354.585 131.516 354.692 131.42L354.815 131.02Z" fill="#D56563"/>
<path d="M411.744 115.278C413.208 112.521 415.465 110.236 418.24 108.701C421.015 107.165 424.19 106.444 427.379 106.626C429.865 106.989 432.172 108.095 433.98 109.791C435.429 111.265 436.544 113.017 437.254 114.935C437.965 116.852 438.255 118.893 438.105 120.926C437.801 125.015 436.485 128.972 434.268 132.462C430.391 139.071 423.831 144.999 415.993 145.159C414.685 145.248 413.374 145.032 412.169 144.531C410.964 144.029 409.899 143.256 409.063 142.275C408.437 141.167 408.019 139.96 407.825 138.71C406.253 130.695 407.64 122.398 411.744 115.278Z" fill="#EFC2B2"/>
<path opacity="0.3" d="M429.483 116.36C434.969 116.36 431.422 129.978 426.224 135.506C421.026 141.033 414.137 142.916 414.962 133.503C415.787 124.09 422.552 116.4 429.483 116.36Z" fill="#D56563"/>
<path d="M427.75 116.039C425.75 116.502 423.904 117.454 422.388 118.803C420.648 120.258 419.096 121.912 417.767 123.73C416.458 125.444 415.581 127.434 415.209 129.538C415.209 130.619 415.003 131.66 414.88 132.742C414.776 133.901 414.776 135.067 414.88 136.227C414.88 136.988 416.158 136.988 416.117 136.227C415.874 134.205 416.143 132.156 416.901 130.259C417.305 129.428 417.649 128.571 417.932 127.695C418.26 126.772 418.66 125.875 419.129 125.011C420.116 123.269 421.306 121.643 422.676 120.165C423.943 118.483 425.738 117.245 427.792 116.64C428.163 116.64 427.998 115.959 427.792 116.079L427.75 116.039Z" fill="#D56563"/>
<path d="M418.551 126.093C418.922 125.736 419.398 125.499 419.912 125.412H420.366H420.572L420.902 125.652C421.346 126.289 421.563 127.048 421.521 127.815C421.444 128.829 421.104 129.808 420.531 130.659C420.235 131.171 419.89 131.653 419.5 132.101C419.129 132.582 418.551 132.982 418.345 133.503C418.138 134.024 418.634 134.224 419.005 134.184C419.603 133.941 420.128 133.556 420.531 133.062C421.001 132.587 421.416 132.063 421.769 131.5C422.49 130.406 422.916 129.152 423.006 127.855C423.006 126.013 422.058 123.85 419.789 123.85C418.88 123.938 418.033 124.336 417.396 124.971C416.736 125.572 417.726 126.534 418.386 125.933L418.551 126.093Z" fill="#D56563"/>
<path d="M292.689 124.01C291.08 121.607 273.96 73.4607 279.735 53.7537C285.676 33.4058 346.523 0 374.617 0C404.195 0 440.621 49.1073 424.615 61.4042C424.615 61.4042 419.747 107.347 415.622 124.37C415.044 126.774 409.64 129.978 408.774 128.376C408.774 128.376 414.096 94.81 410.589 84.3156C408.238 77.1458 401.926 78.5877 398.502 73.5809C395.811 68.2241 393.829 62.558 392.603 56.7178C389.587 61.6713 384.891 65.4522 379.32 67.4124C369.13 71.4179 309.19 65.8903 309.19 65.8903C309.19 65.8903 308.901 83.2742 303.827 87.2396C301.56 88.8358 299.657 90.8694 298.238 93.2128C296.818 95.5562 295.912 98.1591 295.576 100.858C294.545 106.826 297.598 127.575 297.598 127.575C295.582 126.982 293.845 125.72 292.689 124.01Z" fill="#140137"/>
<g opacity="0.65">
<path opacity="0.5" d="M374.287 16.102C379.481 16.102 383.692 14.0576 383.692 11.5357C383.692 9.01387 379.481 6.96948 374.287 6.96948C369.092 6.96948 364.881 9.01387 364.881 11.5357C364.881 14.0576 369.092 16.102 374.287 16.102Z" fill="white"/>
<path opacity="0.5" d="M358.147 16.2176C360.648 15.5348 362.389 13.9972 362.038 12.7834C361.686 11.5696 359.374 11.1391 356.874 11.8219C354.374 12.5048 352.632 14.0424 352.983 15.2562C353.335 16.47 355.647 16.9005 358.147 16.2176Z" fill="white"/>
<path opacity="0.5" d="M295.284 59.4867C297.407 54.8833 297.206 50.3161 294.835 49.2855C292.465 48.2549 288.822 51.1513 286.699 55.7547C284.577 60.3581 284.777 64.9253 287.148 65.9558C289.518 66.9864 293.161 64.0901 295.284 59.4867Z" fill="white"/>
<path opacity="0.5" d="M288.793 73.8258C289.173 71.331 288.439 69.1591 287.154 68.9747C285.87 68.7902 284.52 70.6632 284.14 73.158C283.761 75.6527 284.494 77.8246 285.779 78.009C287.063 78.1934 288.413 76.3206 288.793 73.8258Z" fill="white"/>
<path opacity="0.5" d="M430.722 61.4444C432.82 59.9567 432.036 55.4491 428.971 51.3764C425.907 47.3037 421.723 45.2081 419.625 46.6958C417.528 48.1835 418.312 52.691 421.377 56.7637C424.441 60.8364 428.625 62.932 430.722 61.4444Z" fill="white"/>
<path opacity="0.5" d="M434.511 72.8677C435.728 72.4271 435.979 70.1544 435.071 67.7915C434.164 65.4285 432.442 63.8701 431.225 64.3107C430.008 64.7512 429.757 67.0239 430.665 69.3869C431.572 71.7498 433.294 73.3082 434.511 72.8677Z" fill="white"/>
</g>
<path d="M382.95 124.451C385.479 124.451 387.529 120.756 387.529 116.199C387.529 111.642 385.479 107.948 382.95 107.948C380.421 107.948 378.371 111.642 378.371 116.199C378.371 120.756 380.421 124.451 382.95 124.451Z" fill="#1B2346"/>
<path d="M319.297 124.451C321.826 124.451 323.876 120.756 323.876 116.199C323.876 111.642 321.826 107.948 319.297 107.948C316.768 107.948 314.718 111.642 314.718 116.199C314.718 120.756 316.768 124.451 319.297 124.451Z" fill="#1B2346"/>
<path opacity="0.5" d="M382.991 113.315C383.994 113.315 384.806 112.526 384.806 111.553C384.806 110.58 383.994 109.791 382.991 109.791C381.989 109.791 381.176 110.58 381.176 111.553C381.176 112.526 381.989 113.315 382.991 113.315Z" fill="white"/>
<path opacity="0.5" d="M319.173 113.315C320.176 113.315 320.988 112.526 320.988 111.553C320.988 110.58 320.176 109.791 319.173 109.791C318.171 109.791 317.358 110.58 317.358 111.553C317.358 112.526 318.171 113.315 319.173 113.315Z" fill="white"/>
<path d="M167.033 382.004C167.033 382.004 158.493 385.609 155.564 386.37C152.635 387.131 142.693 384.287 136.918 385.128C131.143 385.969 105.69 390.055 105.772 394.461C105.855 398.867 115.673 397.305 120.871 397.385C126.069 397.465 131.761 395.582 132.38 399.107C132.999 402.632 121.778 407.679 119.386 406.838C116.993 405.997 109.114 401.39 107.01 402.592C104.906 403.794 112.95 419.896 115.26 422.62C117.57 425.343 122.562 423.1 122.562 423.1C126.494 426.03 131.397 427.456 136.341 427.106C144.344 426.265 157.957 411.084 161.092 408.56C165.535 405.856 170.215 403.538 175.077 401.631L167.033 382.004Z" fill="#EFC2B2"/>
<path opacity="0.3" d="M149.129 419.856C154.616 415.249 159.607 409.882 161.257 408.52C165.7 405.816 170.38 403.498 175.242 401.591L166.991 382.004C166.991 382.004 158.452 385.609 155.523 386.37C152.594 387.131 142.652 384.287 136.877 385.128L133.618 385.609C147.066 392.298 148.758 405.797 149.129 419.856Z" fill="#D56563"/>
<path d="M186.133 404.715C177.623 408.259 168.835 411.138 159.855 413.327C154.554 404.461 151.132 394.655 149.789 384.487C155.399 381.603 162.412 379.16 175.531 373.592C179.615 382.484 182.214 395.783 186.133 404.715Z" fill="#F2ECE9"/>
<path d="M321.731 450.738C312.284 410.683 301.888 256.672 292.854 218.419C309.355 214.414 325.32 211.53 325.32 211.53C328.62 223.907 349.494 247.94 358.033 247.579C371.11 247.219 384.889 221.744 390.499 211.209C400.622 211.98 410.603 213.999 420.201 217.218C413.271 270.411 411.703 406.557 394.253 450.618L321.731 450.738Z" fill="#F2ECE9"/>
<path opacity="0.15" d="M369.831 257.793C375.153 322.843 375.277 348.958 376.721 371.229C376.721 389.334 364.716 412.966 356.672 412.966C348.627 412.966 341.408 386.45 338.562 368.345C341.161 344.032 344.337 282.908 346.812 261.959C345.369 263.361 343.966 267.567 342.687 268.929C332.621 260.597 317.069 232.879 305.972 215.335C316.945 212.932 325.567 211.33 325.567 211.33C328.867 223.707 349.741 247.74 358.281 247.379C371.358 247.019 385.136 221.544 390.747 211.009C397.047 211.305 403.291 212.313 409.352 214.013C400.07 235.162 391.489 253.307 375.689 271.412C372.678 266.165 372.678 263.361 369.831 257.793Z" fill="#1B2346"/>
<path d="M346.854 277.22V277.459C346.873 277.381 346.873 277.299 346.854 277.22Z" fill="#F2ECE9"/>
<path d="M365.789 259.996C372.843 292.361 373.255 390.015 373.255 390.015L357.249 397.385L342.068 388.012C342.068 388.012 343.677 290.919 350.938 259.836C347.607 253.006 345.821 245.563 345.699 238.006C346.73 235.042 352.959 236.484 359.064 236.604C365.17 236.725 370.698 235.283 371.688 238.287C376.556 246.738 367.686 254.669 365.789 259.996Z" fill="#1B2346"/>
<path d="M273.052 337.302C273.836 350.2 279.653 376.476 280.271 404.194C281.262 449.937 276.848 499.605 276.848 499.605C299.908 502.729 324.825 495.119 336.623 476.333C351.598 452.3 357.249 422.86 359.064 406.477C363.437 425.583 367.067 452.02 386.002 475.292C402.834 496 441.322 497.121 441.322 497.121C441.034 490.552 440.951 467.921 440.704 458.428C442.849 455.545 459.845 454.423 462.32 451.619C479.646 432.152 493.713 412.926 495.817 400.509C498.375 385.569 475.191 241.171 458.69 227.592C440.511 218.414 421.057 211.843 400.936 208.085C398.543 250.423 382.702 329.972 357.167 389.694C331.961 328.05 321.029 241.171 319.297 209.127C311.706 210.769 259.109 226.19 251.601 233.8C240.834 244.735 224.291 339.946 221.858 355.247C210.142 360.534 183.121 367.263 158.534 377.838C161.34 385.849 166.373 401.871 169.301 413.527C196.487 413.126 232.996 410.242 253.746 394.341C271.938 380.241 270.618 350.16 273.052 337.302ZM443.88 406.557C443.014 372.31 441.941 339.706 440.332 324.325C444.086 338.624 452.213 387.731 451.264 392.418C450.522 393.86 447.717 399.387 443.88 406.557Z" fill="#444588"/>
<path opacity="0.35" d="M423.254 266.165C416.076 270.371 410.878 273.134 405.061 277.3C411.9 281.972 417.812 287.807 422.511 294.524C408.197 321 378.824 385.769 357.703 397.986C335.55 383.285 306.632 329.892 291.698 297.127C297.542 290.199 303.854 283.655 310.592 277.54C304.32 273.35 298.44 268.632 293.019 263.441C295.329 243.133 298.588 226.671 305.394 212.812C316.945 210.168 316.038 209.687 319.379 208.806C321.112 240.85 332.044 327.889 357.126 389.614C382.661 329.892 398.378 250.343 400.895 208.005C406.767 208.839 412.552 210.18 418.18 212.011C422.529 229.734 424.238 247.971 423.254 266.165Z" fill="#1B2346"/>
<path d="M419.417 264.603C413.064 268.608 406.216 272.974 399.038 276.94C406.024 282.009 412.293 287.948 417.685 294.604C413.559 302.975 381.217 378.359 357.538 395.542C332.786 365.982 304.817 318.997 297.185 296.727C302.259 291.8 309.891 281.907 317.523 276.94C310.296 272.608 303.488 267.647 297.185 262.12C297.185 244.816 302.259 227.512 307.292 211.37L319.297 208.967C321.029 241.011 332.456 321.721 357.538 383.446C380.468 327.188 394.529 267.894 399.245 207.565C404.237 208.358 409.171 209.468 414.013 210.889C416.488 224.147 421.975 249.743 419.417 264.603Z" fill="#505496"/>
<path d="M438.352 426.785C439.993 426.785 441.322 425.494 441.322 423.901C441.322 422.309 439.993 421.017 438.352 421.017C436.712 421.017 435.382 422.309 435.382 423.901C435.382 425.494 436.712 426.785 438.352 426.785Z" fill="#5E8DAA"/>
<path d="M177.387 408.32C179.027 408.32 180.357 407.029 180.357 405.436C180.357 403.843 179.027 402.552 177.387 402.552C175.747 402.552 174.417 403.843 174.417 405.436C174.417 407.029 175.747 408.32 177.387 408.32Z" fill="#5E8DAA"/>
<path opacity="0.35" d="M459.686 242.301C461.273 240.904 460.226 237.274 457.348 234.194C454.47 231.113 450.852 229.749 449.265 231.146C447.679 232.543 448.726 236.173 451.604 239.253C454.481 242.334 458.1 243.698 459.686 242.301Z" fill="white"/>
<path opacity="0.35" d="M463.89 251.613C464.849 251.15 464.851 249.265 463.895 247.404C462.94 245.543 461.388 244.41 460.43 244.874C459.472 245.338 459.469 247.223 460.425 249.084C461.381 250.945 462.932 252.077 463.89 251.613Z" fill="white"/>
<path opacity="0.35" d="M270.826 235.868C273.704 232.788 274.751 229.158 273.165 227.761C271.578 226.364 267.96 227.729 265.082 230.809C262.204 233.89 261.157 237.519 262.744 238.916C264.33 240.313 267.949 238.949 270.826 235.868Z" fill="white"/>
<path opacity="0.35" d="M261.968 245.52C262.924 243.659 262.922 241.774 261.963 241.311C261.005 240.847 259.453 241.979 258.498 243.84C257.542 245.701 257.544 247.586 258.503 248.05C259.461 248.514 261.013 247.381 261.968 245.52Z" fill="white"/>
<path d="M276.724 268.288C273.159 278.957 271.105 290.047 270.618 301.253C270.33 306.62 270.371 311.948 270.618 317.275L270.866 325.606C270.803 328.503 271.01 331.398 271.485 334.258C271.773 335.54 274.042 335.66 274.249 334.258C274.631 328.915 274.465 323.548 273.754 318.236C273.465 312.909 273.217 307.542 273.259 302.214C273.335 290.947 274.958 279.74 278.085 268.889C278.333 268.168 277.136 267.847 276.93 268.568L276.724 268.288Z" fill="#1B2346"/>
<path d="M261.584 276.94C260.735 286.632 261.277 296.392 263.193 305.94C264.142 310.786 265.338 315.633 266.699 320.399C267.743 325.236 269.392 329.93 271.608 334.379C272.351 335.66 274.084 334.739 273.877 333.457C272.693 328.765 271.205 324.149 269.422 319.638C268.019 315.072 266.782 310.426 265.833 305.739C263.754 296.281 263.005 286.593 263.605 276.94C263.605 275.658 261.666 275.698 261.584 276.94Z" fill="#1B2346"/>
<path d="M437.032 263.441C437.775 275.458 438.311 287.754 438.847 299.891C439.095 306.26 439.425 312.629 439.631 318.997C439.631 324.765 439.631 330.613 440.126 336.381C440.126 336.689 440.252 336.985 440.477 337.203C440.701 337.42 441.005 337.543 441.323 337.543C441.64 337.543 441.944 337.42 442.168 337.203C442.393 336.985 442.519 336.689 442.519 336.381C442.76 330.585 442.65 324.781 442.189 318.997C441.941 312.615 441.611 306.247 441.199 299.891C440.333 287.875 439.219 275.618 438.229 263.441C438.229 262.72 436.991 262.72 437.032 263.441Z" fill="#1B2346"/>
<path d="M444.417 278.782C445.351 288.785 445.462 298.844 444.746 308.863C444.169 316.314 442.766 323.644 441.694 331.014C441.446 332.536 443.756 333.217 444.086 331.655C447.679 314.255 448.5 296.423 446.52 278.782C446.52 277.5 444.334 277.5 444.417 278.782Z" fill="#1B2346"/>
<path d="M376.927 263.441L362.942 237.846L354.692 237.606L343.636 263.441C331.728 246.53 321.019 228.852 311.583 210.529C321.442 207.765 329.651 206.523 329.651 206.523C336.862 218.759 347.027 229.109 359.271 236.685C371.877 228.789 382.471 218.215 390.252 205.762C396.575 206.713 402.831 208.051 408.98 209.768C401.596 228.513 389.468 245.737 376.927 263.441Z" fill="#FFF7F2"/>
<path d="M434.103 429.789C440.827 436.999 451.801 441.245 458.36 448.575C448.212 460.031 445.778 467.962 440.291 472.007C431.504 467.481 424.656 441.846 434.103 429.789Z" fill="#EFC2B2"/>
<path d="M464.754 448.976C461.538 453.397 457.658 457.326 453.244 460.631C444.835 451.444 435.224 443.365 424.656 436.598C426.81 432.761 429.309 429.115 432.123 425.704C441.9 434.756 455.101 439.843 464.754 448.976Z" fill="#F2ECE9"/>
<path d="M4.16657 382.044L154.285 400.149C155.05 400.242 155.787 400.482 156.456 400.853C157.125 401.224 157.712 401.719 158.183 402.311C158.654 402.903 159.001 403.579 159.203 404.3C159.405 405.022 159.458 405.775 159.36 406.517C159.273 407.26 159.035 407.978 158.659 408.63C158.282 409.281 157.776 409.854 157.168 410.313C156.561 410.771 155.866 411.108 155.123 411.302C154.38 411.497 153.604 411.545 152.842 411.444L3.30029 389.173C2.33202 389.041 1.45763 388.54 0.869668 387.781C0.281701 387.022 0.0282797 386.068 0.165041 385.128C0.301803 384.188 0.817593 383.339 1.59897 382.768C2.38035 382.197 3.36334 381.951 4.33161 382.084L4.16657 382.044Z" fill="#A33F21"/>
</g>
<defs>
<clipPath id="clip0_867_1970">
<rect width="515" height="846" fill="white"/>
</clipPath>
</defs>
</svg>
