<svg width="903" height="570" viewBox="0 0 903 570" fill="none" xmlns="http://www.w3.org/2000/svg">
<g style="mix-blend-mode:color-dodge">
<path d="M278.75 338.96C265.426 312.141 243.429 290.613 216.331 277.868C189.232 265.124 158.621 261.912 129.467 268.754C100.313 275.596 74.3266 292.09 55.7261 315.559C37.1256 339.028 27.0025 368.094 27 398.04C27 471.37 86.45 530.18 159.79 530.18H722.01C765.506 530.18 807.22 512.901 837.976 482.145C868.731 451.39 886.01 409.675 886.01 366.18C886.01 322.684 868.731 280.97 837.976 250.214C807.22 219.458 765.506 202.18 722.01 202.18H688.01C656.51 97.39 559.4 21 444.34 21C326.88 21 227.99 100.55 198.62 208.71" stroke="white" stroke-width="26" stroke-miterlimit="10"/>
</g>
<path style="mix-blend-mode:color-dodge" d="M383.136 101.765C259.341 208.725 125.764 274.743 84.7709 249.205C43.7779 223.668 110.9 116.238 234.692 9.26028C358.483 -97.7171 492.088 -163.722 533.081 -138.184C574.074 -112.646 506.921 -5.24683 383.136 101.765Z" fill="url(#paint0_radial_212_114)"/>
<path style="mix-blend-mode:color-dodge" d="M629.548 586.996C429.35 587.455 267.016 551.68 267 506.865C266.984 462.05 429.318 425.463 629.452 425.004C829.585 424.545 991.968 460.32 992 505.135C992.032 549.95 829.746 586.537 629.548 586.996Z" fill="url(#paint1_radial_212_114)"/>
<path style="mix-blend-mode:color-dodge" d="M159.259 331.241C74.1139 416.387 -27.1021 475.72 -66.8506 463.75C-106.599 451.781 -69.8473 373.044 15.3894 287.896C100.626 202.748 201.751 143.418 241.472 155.473C281.193 167.529 244.372 246.029 159.259 331.241Z" fill="url(#paint2_radial_212_114)"/>
<defs>
<radialGradient id="paint0_radial_212_114" cx="0" cy="0" r="1" gradientUnits="userSpaceOnUse" gradientTransform="translate(289.94 81.4717) rotate(32.0563) scale(87.0307 283.419)">
<stop stop-color="#FAFAFA"/>
<stop offset="0.05" stop-color="#EFF2FA"/>
<stop offset="0.1" stop-color="#E8EDFA"/>
<stop offset="0.15" stop-color="#D8DCFB" stop-opacity="0.81"/>
<stop offset="0.21" stop-color="#C9CDFC" stop-opacity="0.62"/>
<stop offset="0.28" stop-color="#BBBEFD" stop-opacity="0.45"/>
<stop offset="0.35" stop-color="#B0B3FD" stop-opacity="0.31"/>
<stop offset="0.42" stop-color="#A6A9FE" stop-opacity="0.2"/>
<stop offset="0.49" stop-color="#9FA1FE" stop-opacity="0.11"/>
<stop offset="0.57" stop-color="#9A9CFF" stop-opacity="0.05"/>
<stop offset="0.67" stop-color="#9799FF" stop-opacity="0.01"/>
<stop offset="0.8" stop-color="#9698FF" stop-opacity="0"/>
</radialGradient>
<radialGradient id="paint1_radial_212_114" cx="0" cy="0" r="1" gradientUnits="userSpaceOnUse" gradientTransform="translate(634.517 531.551) rotate(90) scale(81.5833 362.304)">
<stop stop-color="#FAFAFA"/>
<stop offset="0.05" stop-color="#EFF2FA"/>
<stop offset="0.1" stop-color="#E8EDFA"/>
<stop offset="0.15" stop-color="#D8DCFB" stop-opacity="0.81"/>
<stop offset="0.21" stop-color="#C9CDFC" stop-opacity="0.62"/>
<stop offset="0.28" stop-color="#BBBEFD" stop-opacity="0.45"/>
<stop offset="0.35" stop-color="#B0B3FD" stop-opacity="0.31"/>
<stop offset="0.42" stop-color="#A6A9FE" stop-opacity="0.2"/>
<stop offset="0.49" stop-color="#9FA1FE" stop-opacity="0.11"/>
<stop offset="0.57" stop-color="#9A9CFF" stop-opacity="0.05"/>
<stop offset="0.67" stop-color="#9799FF" stop-opacity="0.01"/>
<stop offset="0.8" stop-color="#9698FF" stop-opacity="0"/>
</radialGradient>
<radialGradient id="paint2_radial_212_114" cx="0" cy="0" r="1" gradientUnits="userSpaceOnUse" gradientTransform="translate(76.6012 298.669) rotate(16.6913) scale(75.111 191.886)">
<stop stop-color="#FAFAFA"/>
<stop offset="0.05" stop-color="#EFF2FA"/>
<stop offset="0.1" stop-color="#E8EDFA"/>
<stop offset="0.15" stop-color="#D8DCFB" stop-opacity="0.81"/>
<stop offset="0.21" stop-color="#C9CDFC" stop-opacity="0.62"/>
<stop offset="0.28" stop-color="#BBBEFD" stop-opacity="0.45"/>
<stop offset="0.35" stop-color="#B0B3FD" stop-opacity="0.31"/>
<stop offset="0.42" stop-color="#A6A9FE" stop-opacity="0.2"/>
<stop offset="0.49" stop-color="#9FA1FE" stop-opacity="0.11"/>
<stop offset="0.57" stop-color="#9A9CFF" stop-opacity="0.05"/>
<stop offset="0.67" stop-color="#9799FF" stop-opacity="0.01"/>
<stop offset="0.8" stop-color="#9698FF" stop-opacity="0"/>
</radialGradient>
</defs>
</svg>
